<mxfile host="Electron" agent="Mozilla/5.0 (Macintosh; Intel Mac OS X 10_15_7) AppleWebKit/537.36 (KHTML, like Gecko) draw.io/24.7.17 Chrome/128.0.6613.36 Electron/32.0.1 Safari/537.36" version="24.7.17">
  <diagram name="第 1 页" id="eXAId7AeTqNhBxDjCLfQ">
    <mxGraphModel dx="2436" dy="2009" grid="1" gridSize="10" guides="1" tooltips="1" connect="1" arrows="1" fold="1" page="1" pageScale="1" pageWidth="827" pageHeight="1169" math="0" shadow="0">
      <root>
        <mxCell id="0" />
        <mxCell id="1" parent="0" />
        <mxCell id="gW8PeKBPmqR-yox59LKh-1" value="&lt;font style=&quot;font-size: 14px;&quot;&gt;计算资源&lt;/font&gt;" style="rounded=0;whiteSpace=wrap;html=1;fillColor=#f5f5f5;fontColor=#333333;strokeColor=#666666;" parent="1" vertex="1">
          <mxGeometry x="110" y="603" width="255" height="50" as="geometry" />
        </mxCell>
        <mxCell id="gW8PeKBPmqR-yox59LKh-2" value="&lt;font style=&quot;font-size: 14px;&quot;&gt;存储资源&lt;/font&gt;" style="rounded=0;whiteSpace=wrap;html=1;fillColor=#f5f5f5;fontColor=#333333;strokeColor=none;fontStyle=1;fontSize=14;" parent="1" vertex="1">
          <mxGeometry x="373" y="674" width="255" height="40" as="geometry" />
        </mxCell>
        <mxCell id="gW8PeKBPmqR-yox59LKh-3" value="&lt;font style=&quot;font-size: 14px;&quot;&gt;网络资源&lt;/font&gt;" style="rounded=0;whiteSpace=wrap;html=1;fillColor=#f5f5f5;fontColor=#333333;strokeColor=none;fontStyle=1;fontSize=14;" parent="1" vertex="1">
          <mxGeometry x="635" y="674" width="255" height="40" as="geometry" />
        </mxCell>
        <mxCell id="gW8PeKBPmqR-yox59LKh-12" value="" style="rounded=0;whiteSpace=wrap;html=1;fillColor=#ffe6cc;strokeColor=none;" parent="1" vertex="1">
          <mxGeometry x="10" y="380" width="1340" height="110" as="geometry" />
        </mxCell>
        <mxCell id="gW8PeKBPmqR-yox59LKh-15" value="" style="rounded=0;whiteSpace=wrap;html=1;fillColor=#dae8fc;strokeColor=none;" parent="1" vertex="1">
          <mxGeometry x="10" y="120" width="880" height="110" as="geometry" />
        </mxCell>
        <mxCell id="gW8PeKBPmqR-yox59LKh-16" value="" style="rounded=0;whiteSpace=wrap;html=1;fillColor=#dae8fc;strokeColor=none;" parent="1" vertex="1">
          <mxGeometry x="10" y="240" width="880" height="130" as="geometry" />
        </mxCell>
        <mxCell id="gW8PeKBPmqR-yox59LKh-17" value="&lt;font style=&quot;font-size: 14px;&quot;&gt;自然资源用户&lt;/font&gt;" style="rounded=0;whiteSpace=wrap;html=1;fillColor=#f5f5f5;fontColor=#333333;strokeColor=none;fontSize=14;fontStyle=1" parent="1" vertex="1">
          <mxGeometry x="110" y="-243" width="400" height="40" as="geometry" />
        </mxCell>
        <mxCell id="gW8PeKBPmqR-yox59LKh-18" value="&lt;span style=&quot;font-size: 14px;&quot;&gt;住建用户&lt;/span&gt;" style="rounded=0;whiteSpace=wrap;html=1;fillColor=#f5f5f5;fontColor=#333333;strokeColor=none;fontSize=14;fontStyle=1" parent="1" vertex="1">
          <mxGeometry x="520" y="-243" width="200" height="40" as="geometry" />
        </mxCell>
        <mxCell id="gW8PeKBPmqR-yox59LKh-19" value="&lt;span style=&quot;font-size: 14px;&quot;&gt;数据局用户&lt;/span&gt;" style="rounded=0;whiteSpace=wrap;html=1;fillColor=#f5f5f5;fontColor=#333333;strokeColor=none;fontSize=14;fontStyle=1" parent="1" vertex="1">
          <mxGeometry x="730" y="-243" width="620" height="40" as="geometry" />
        </mxCell>
        <mxCell id="gW8PeKBPmqR-yox59LKh-20" value="平台支撑层" style="text;html=1;align=center;verticalAlign=middle;whiteSpace=wrap;rounded=0;fontSize=14;fontStyle=1;fillColor=#ffe6cc;strokeColor=none;" parent="1" vertex="1">
          <mxGeometry x="-81" y="380" width="80" height="110" as="geometry" />
        </mxCell>
        <mxCell id="gW8PeKBPmqR-yox59LKh-21" value="基础设施层" style="text;html=1;align=center;verticalAlign=middle;whiteSpace=wrap;rounded=0;fontSize=14;fontStyle=1;fillColor=#f5f5f5;fontFamily=Helvetica;fontColor=#333333;strokeColor=none;" parent="1" vertex="1">
          <mxGeometry x="-81" y="674" width="81" height="40" as="geometry" />
        </mxCell>
        <mxCell id="gW8PeKBPmqR-yox59LKh-22" value="数据资源层" style="text;html=1;align=center;verticalAlign=middle;whiteSpace=wrap;rounded=0;fontSize=14;fontStyle=1;fillColor=#d5e8d4;strokeColor=none;" parent="1" vertex="1">
          <mxGeometry x="-81" y="500" width="80" height="170" as="geometry" />
        </mxCell>
        <mxCell id="gW8PeKBPmqR-yox59LKh-23" value="应用服务层" style="text;html=1;align=center;verticalAlign=middle;whiteSpace=wrap;rounded=0;fontSize=14;fontStyle=1;fillColor=#dae8fc;strokeColor=none;" parent="1" vertex="1">
          <mxGeometry x="-81" y="-198" width="80" height="568" as="geometry" />
        </mxCell>
        <mxCell id="gW8PeKBPmqR-yox59LKh-24" value="用户服务层" style="text;html=1;align=center;verticalAlign=middle;whiteSpace=wrap;rounded=0;fontSize=14;fontStyle=1;fillColor=#f5f5f5;fontColor=#333333;strokeColor=none;" parent="1" vertex="1">
          <mxGeometry x="-81" y="-243" width="80" height="40" as="geometry" />
        </mxCell>
        <mxCell id="gW8PeKBPmqR-yox59LKh-25" value="统一认证" style="rounded=0;whiteSpace=wrap;html=1;fillColor=none;strokeColor=#ffffff;strokeWidth=2;" parent="1" vertex="1">
          <mxGeometry x="120" y="458" width="70" height="20" as="geometry" />
        </mxCell>
        <mxCell id="gW8PeKBPmqR-yox59LKh-26" value="分级授权" style="rounded=0;whiteSpace=wrap;html=1;fillColor=none;strokeColor=#ffffff;strokeWidth=2;" parent="1" vertex="1">
          <mxGeometry x="205" y="458" width="70" height="20" as="geometry" />
        </mxCell>
        <mxCell id="gW8PeKBPmqR-yox59LKh-27" value="多租户" style="rounded=0;whiteSpace=wrap;html=1;fillColor=none;strokeColor=#ffffff;strokeWidth=2;" parent="1" vertex="1">
          <mxGeometry x="289" y="458" width="70" height="20" as="geometry" />
        </mxCell>
        <mxCell id="gW8PeKBPmqR-yox59LKh-28" value="流程中心" style="rounded=0;whiteSpace=wrap;html=1;fillColor=none;strokeColor=#ffffff;strokeWidth=2;" parent="1" vertex="1">
          <mxGeometry x="120" y="392" width="70" height="20" as="geometry" />
        </mxCell>
        <mxCell id="gW8PeKBPmqR-yox59LKh-29" value="表单中心" style="rounded=0;whiteSpace=wrap;html=1;fillColor=none;strokeColor=#ffffff;strokeWidth=2;" parent="1" vertex="1">
          <mxGeometry x="205" y="392" width="70" height="20" as="geometry" />
        </mxCell>
        <mxCell id="gW8PeKBPmqR-yox59LKh-30" value="报表中心" style="rounded=0;whiteSpace=wrap;html=1;fillColor=none;strokeColor=#ffffff;strokeWidth=2;" parent="1" vertex="1">
          <mxGeometry x="289" y="392" width="70" height="20" as="geometry" />
        </mxCell>
        <mxCell id="gW8PeKBPmqR-yox59LKh-31" value="规则引擎" style="rounded=0;whiteSpace=wrap;html=1;fillColor=none;strokeColor=#ffffff;strokeWidth=2;" parent="1" vertex="1">
          <mxGeometry x="120" y="425" width="70" height="20" as="geometry" />
        </mxCell>
        <mxCell id="gW8PeKBPmqR-yox59LKh-32" value="配置管理" style="rounded=0;whiteSpace=wrap;html=1;fillColor=none;strokeColor=#ffffff;strokeWidth=2;" parent="1" vertex="1">
          <mxGeometry x="205" y="425" width="70" height="20" as="geometry" />
        </mxCell>
        <mxCell id="gW8PeKBPmqR-yox59LKh-33" value="部署运维" style="rounded=0;whiteSpace=wrap;html=1;fillColor=none;strokeColor=#ffffff;strokeWidth=2;" parent="1" vertex="1">
          <mxGeometry x="458" y="458" width="70" height="20" as="geometry" />
        </mxCell>
        <mxCell id="gW8PeKBPmqR-yox59LKh-34" value="日志审计" style="rounded=0;whiteSpace=wrap;html=1;fillColor=none;strokeColor=#ffffff;strokeWidth=2;" parent="1" vertex="1">
          <mxGeometry x="374" y="458" width="70" height="20" as="geometry" />
        </mxCell>
        <mxCell id="gW8PeKBPmqR-yox59LKh-35" value="消息管理" style="rounded=0;whiteSpace=wrap;html=1;fillColor=none;strokeColor=#ffffff;strokeWidth=2;" parent="1" vertex="1">
          <mxGeometry x="374" y="425" width="70" height="20" as="geometry" />
        </mxCell>
        <mxCell id="gW8PeKBPmqR-yox59LKh-36" value="服务管理" style="rounded=0;whiteSpace=wrap;html=1;fillColor=none;strokeColor=#ffffff;strokeWidth=2;" parent="1" vertex="1">
          <mxGeometry x="374" y="392" width="70" height="20" as="geometry" />
        </mxCell>
        <mxCell id="gW8PeKBPmqR-yox59LKh-37" value="文档管理" style="rounded=0;whiteSpace=wrap;html=1;fillColor=none;strokeColor=#ffffff;strokeWidth=2;" parent="1" vertex="1">
          <mxGeometry x="458" y="392" width="70" height="20" as="geometry" />
        </mxCell>
        <mxCell id="gW8PeKBPmqR-yox59LKh-38" value="OCR" style="rounded=0;whiteSpace=wrap;html=1;fillColor=none;strokeColor=#ffffff;strokeWidth=2;" parent="1" vertex="1">
          <mxGeometry x="458" y="425" width="70" height="20" as="geometry" />
        </mxCell>
        <mxCell id="gW8PeKBPmqR-yox59LKh-39" value="搜索引擎" style="rounded=0;whiteSpace=wrap;html=1;fillColor=none;strokeColor=#ffffff;strokeWidth=2;" parent="1" vertex="1">
          <mxGeometry x="289" y="425" width="70" height="20" as="geometry" />
        </mxCell>
        <mxCell id="gW8PeKBPmqR-yox59LKh-40" value="数据汇聚" style="rounded=0;whiteSpace=wrap;html=1;fillColor=none;strokeColor=#ffffff;strokeWidth=2;" parent="1" vertex="1">
          <mxGeometry x="543" y="458" width="70" height="20" as="geometry" />
        </mxCell>
        <mxCell id="gW8PeKBPmqR-yox59LKh-41" value="数据质量" style="rounded=0;whiteSpace=wrap;html=1;fillColor=none;strokeColor=#ffffff;strokeWidth=2;" parent="1" vertex="1">
          <mxGeometry x="543" y="392" width="70" height="20" as="geometry" />
        </mxCell>
        <mxCell id="gW8PeKBPmqR-yox59LKh-42" value="数据建模" style="rounded=0;whiteSpace=wrap;html=1;fillColor=none;strokeColor=#ffffff;strokeWidth=2;" parent="1" vertex="1">
          <mxGeometry x="543" y="425" width="70" height="20" as="geometry" />
        </mxCell>
        <mxCell id="gW8PeKBPmqR-yox59LKh-43" value="数据开发" style="rounded=0;whiteSpace=wrap;html=1;fillColor=none;strokeColor=#ffffff;strokeWidth=2;" parent="1" vertex="1">
          <mxGeometry x="627" y="425" width="70" height="20" as="geometry" />
        </mxCell>
        <mxCell id="gW8PeKBPmqR-yox59LKh-44" value="数据服务" style="rounded=0;whiteSpace=wrap;html=1;fillColor=none;strokeColor=#ffffff;strokeWidth=2;" parent="1" vertex="1">
          <mxGeometry x="712" y="392" width="70" height="20" as="geometry" />
        </mxCell>
        <mxCell id="gW8PeKBPmqR-yox59LKh-45" value="数据标准" style="rounded=0;whiteSpace=wrap;html=1;fillColor=none;strokeColor=#ffffff;strokeWidth=2;" parent="1" vertex="1">
          <mxGeometry x="712" y="425" width="70" height="20" as="geometry" />
        </mxCell>
        <mxCell id="gW8PeKBPmqR-yox59LKh-46" value="数据规划" style="rounded=0;whiteSpace=wrap;html=1;fillColor=none;strokeColor=#ffffff;strokeWidth=2;" parent="1" vertex="1">
          <mxGeometry x="627" y="392" width="70" height="20" as="geometry" />
        </mxCell>
        <mxCell id="gW8PeKBPmqR-yox59LKh-47" value="任务引擎" style="rounded=0;whiteSpace=wrap;html=1;fillColor=none;strokeColor=#ffffff;strokeWidth=2;" parent="1" vertex="1">
          <mxGeometry x="627" y="458" width="70" height="20" as="geometry" />
        </mxCell>
        <mxCell id="gW8PeKBPmqR-yox59LKh-48" value="算子编排" style="rounded=0;whiteSpace=wrap;html=1;fillColor=none;strokeColor=#ffffff;strokeWidth=2;" parent="1" vertex="1">
          <mxGeometry x="712" y="458" width="70" height="20" as="geometry" />
        </mxCell>
        <mxCell id="gW8PeKBPmqR-yox59LKh-49" value="移动应用运营" style="rounded=0;whiteSpace=wrap;html=1;fillColor=none;strokeColor=#ffffff;strokeWidth=2;" parent="1" vertex="1">
          <mxGeometry x="859" y="385" width="24" height="100" as="geometry" />
        </mxCell>
        <mxCell id="gW8PeKBPmqR-yox59LKh-50" value="移动应用框架" style="rounded=0;whiteSpace=wrap;html=1;fillColor=none;strokeColor=#ffffff;strokeWidth=2;" parent="1" vertex="1">
          <mxGeometry x="792" y="385" width="24" height="100" as="geometry" />
        </mxCell>
        <mxCell id="gW8PeKBPmqR-yox59LKh-51" value="移动应用模版" style="rounded=0;whiteSpace=wrap;html=1;fillColor=none;strokeColor=#ffffff;strokeWidth=2;" parent="1" vertex="1">
          <mxGeometry x="826" y="385" width="24" height="100" as="geometry" />
        </mxCell>
        <mxCell id="juO7j_CipVgZOBiZybFH-2" value="" style="rounded=0;whiteSpace=wrap;html=1;fillColor=#d5e8d4;strokeColor=none;" parent="1" vertex="1">
          <mxGeometry x="10" y="500" width="430" height="170" as="geometry" />
        </mxCell>
        <mxCell id="juO7j_CipVgZOBiZybFH-3" value="用户与组织机构数据" style="shape=cylinder3;whiteSpace=wrap;html=1;boundedLbl=1;backgroundOutline=1;size=8;fillColor=none;" parent="1" vertex="1">
          <mxGeometry x="120" y="603" width="70" height="60" as="geometry" />
        </mxCell>
        <mxCell id="juO7j_CipVgZOBiZybFH-7" value="流程&lt;div&gt;项目数据&lt;/div&gt;" style="shape=cylinder3;whiteSpace=wrap;html=1;boundedLbl=1;backgroundOutline=1;size=8;fillColor=none;" parent="1" vertex="1">
          <mxGeometry x="280" y="534" width="70" height="60" as="geometry" />
        </mxCell>
        <mxCell id="juO7j_CipVgZOBiZybFH-8" value="&lt;span style=&quot;background-color: initial;&quot;&gt;服务数据&lt;/span&gt;" style="shape=cylinder3;whiteSpace=wrap;html=1;boundedLbl=1;backgroundOutline=1;size=8;fillColor=none;" parent="1" vertex="1">
          <mxGeometry x="360" y="534" width="70" height="60" as="geometry" />
        </mxCell>
        <mxCell id="juO7j_CipVgZOBiZybFH-9" value="&lt;span style=&quot;background-color: initial;&quot;&gt;文档数据&lt;/span&gt;" style="shape=cylinder3;whiteSpace=wrap;html=1;boundedLbl=1;backgroundOutline=1;size=8;fillColor=none;" parent="1" vertex="1">
          <mxGeometry x="200" y="534" width="70" height="60" as="geometry" />
        </mxCell>
        <mxCell id="juO7j_CipVgZOBiZybFH-10" value="&lt;span style=&quot;background-color: initial;&quot;&gt;规则数据&lt;/span&gt;" style="shape=cylinder3;whiteSpace=wrap;html=1;boundedLbl=1;backgroundOutline=1;size=8;fillColor=none;" parent="1" vertex="1">
          <mxGeometry x="120" y="534" width="70" height="60" as="geometry" />
        </mxCell>
        <mxCell id="juO7j_CipVgZOBiZybFH-11" value="&lt;span style=&quot;background-color: initial;&quot;&gt;系统&lt;/span&gt;&lt;div&gt;&lt;span style=&quot;background-color: initial;&quot;&gt;日志数据&lt;/span&gt;&lt;/div&gt;" style="shape=cylinder3;whiteSpace=wrap;html=1;boundedLbl=1;backgroundOutline=1;size=8;fillColor=none;" parent="1" vertex="1">
          <mxGeometry x="280" y="603" width="70" height="60" as="geometry" />
        </mxCell>
        <mxCell id="juO7j_CipVgZOBiZybFH-12" value="&lt;span style=&quot;background-color: initial;&quot;&gt;消息数据&lt;/span&gt;" style="shape=cylinder3;whiteSpace=wrap;html=1;boundedLbl=1;backgroundOutline=1;size=8;fillColor=none;" parent="1" vertex="1">
          <mxGeometry x="360" y="603" width="70" height="60" as="geometry" />
        </mxCell>
        <mxCell id="juO7j_CipVgZOBiZybFH-13" value="&lt;span style=&quot;background-color: initial;&quot;&gt;系统&lt;/span&gt;&lt;div&gt;&lt;span style=&quot;background-color: initial;&quot;&gt;配置数据&lt;/span&gt;&lt;/div&gt;" style="shape=cylinder3;whiteSpace=wrap;html=1;boundedLbl=1;backgroundOutline=1;size=8;fillColor=none;" parent="1" vertex="1">
          <mxGeometry x="200" y="603" width="70" height="60" as="geometry" />
        </mxCell>
        <mxCell id="juO7j_CipVgZOBiZybFH-14" value="系统运管数据" style="text;html=1;align=center;verticalAlign=middle;whiteSpace=wrap;rounded=0;fontStyle=1;fontSize=14;" parent="1" vertex="1">
          <mxGeometry x="235" y="496" width="95" height="30" as="geometry" />
        </mxCell>
        <mxCell id="juO7j_CipVgZOBiZybFH-15" value="" style="rounded=0;whiteSpace=wrap;html=1;fillColor=#d5e8d4;strokeColor=none;" parent="1" vertex="1">
          <mxGeometry x="450" y="500" width="900" height="170" as="geometry" />
        </mxCell>
        <mxCell id="juO7j_CipVgZOBiZybFH-16" value="行业业务数据" style="text;html=1;align=center;verticalAlign=middle;whiteSpace=wrap;rounded=0;fontStyle=1;strokeColor=none;fontSize=14;" parent="1" vertex="1">
          <mxGeometry x="630" y="500" width="90" height="30" as="geometry" />
        </mxCell>
        <mxCell id="juO7j_CipVgZOBiZybFH-17" value="&lt;font style=&quot;font-size: 14px;&quot;&gt;计算资源&lt;/font&gt;" style="rounded=0;whiteSpace=wrap;html=1;fillColor=#f5f5f5;fontColor=#333333;strokeColor=none;fontStyle=1;fontSize=14;" parent="1" vertex="1">
          <mxGeometry x="110" y="674" width="255" height="40" as="geometry" />
        </mxCell>
        <mxCell id="juO7j_CipVgZOBiZybFH-18" value="&lt;span style=&quot;background-color: initial;&quot;&gt;自然资源&lt;/span&gt;&lt;div&gt;&lt;span style=&quot;background-color: initial;&quot;&gt;规划数据&lt;/span&gt;&lt;/div&gt;" style="shape=cylinder3;whiteSpace=wrap;html=1;boundedLbl=1;backgroundOutline=1;size=8;fillColor=none;" parent="1" vertex="1">
          <mxGeometry x="465.5" y="603" width="70" height="60" as="geometry" />
        </mxCell>
        <mxCell id="juO7j_CipVgZOBiZybFH-19" value="&lt;span style=&quot;background-color: initial;&quot;&gt;自然资源&lt;/span&gt;&lt;div&gt;&lt;span style=&quot;background-color: initial;&quot;&gt;现状数据&lt;/span&gt;&lt;/div&gt;" style="shape=cylinder3;whiteSpace=wrap;html=1;boundedLbl=1;backgroundOutline=1;size=8;fillColor=none;" parent="1" vertex="1">
          <mxGeometry x="465.5" y="534" width="70" height="60" as="geometry" />
        </mxCell>
        <mxCell id="juO7j_CipVgZOBiZybFH-20" value="&lt;span style=&quot;background-color: initial;&quot;&gt;自然资源&lt;/span&gt;&lt;div&gt;&lt;span style=&quot;background-color: initial;&quot;&gt;管理数据&lt;/span&gt;&lt;/div&gt;" style="shape=cylinder3;whiteSpace=wrap;html=1;boundedLbl=1;backgroundOutline=1;size=8;fillColor=none;" parent="1" vertex="1">
          <mxGeometry x="540" y="534" width="70" height="60" as="geometry" />
        </mxCell>
        <mxCell id="juO7j_CipVgZOBiZybFH-21" value="&lt;span style=&quot;background-color: initial;&quot;&gt;社会经济数据&lt;/span&gt;" style="shape=cylinder3;whiteSpace=wrap;html=1;boundedLbl=1;backgroundOutline=1;size=8;fillColor=none;" parent="1" vertex="1">
          <mxGeometry x="540" y="603" width="70" height="60" as="geometry" />
        </mxCell>
        <mxCell id="juO7j_CipVgZOBiZybFH-22" value="时空底座" style="text;html=1;align=center;verticalAlign=middle;whiteSpace=wrap;rounded=0;fontStyle=1;fontSize=14;" parent="1" vertex="1">
          <mxGeometry x="463" y="120" width="80" height="30" as="geometry" />
        </mxCell>
        <mxCell id="juO7j_CipVgZOBiZybFH-23" value="数据治理平台" style="text;html=1;align=center;verticalAlign=middle;whiteSpace=wrap;rounded=0;fontStyle=1;fontSize=14;" parent="1" vertex="1">
          <mxGeometry x="463" y="240" width="97" height="30" as="geometry" />
        </mxCell>
        <mxCell id="juO7j_CipVgZOBiZybFH-24" value="" style="rounded=0;whiteSpace=wrap;html=1;fillColor=#dae8fc;strokeColor=none;" parent="1" vertex="1">
          <mxGeometry x="10" y="-198" width="500" height="310" as="geometry" />
        </mxCell>
        <mxCell id="juO7j_CipVgZOBiZybFH-25" value="" style="rounded=0;whiteSpace=wrap;html=1;fillColor=#dae8fc;strokeColor=none;" parent="1" vertex="1">
          <mxGeometry x="520" y="-198" width="200" height="310" as="geometry" />
        </mxCell>
        <mxCell id="juO7j_CipVgZOBiZybFH-26" value="" style="rounded=0;whiteSpace=wrap;html=1;fillColor=#dae8fc;strokeColor=none;" parent="1" vertex="1">
          <mxGeometry x="730" y="-198" width="620" height="310" as="geometry" />
        </mxCell>
        <mxCell id="ZOYTXHk_VnNkoqSfOSc5-2" value="一体化政务空间共享服务平台" style="rounded=1;whiteSpace=wrap;html=1;arcSize=4;align=center;verticalAlign=top;fillColor=none;" parent="1" vertex="1">
          <mxGeometry x="740" y="-32.73717948717949" width="280" height="114.48717948717947" as="geometry" />
        </mxCell>
        <mxCell id="ZOYTXHk_VnNkoqSfOSc5-3" value="数据共享" style="rounded=0;whiteSpace=wrap;html=1;fillColor=none;strokeColor=#ffffff;strokeWidth=2;" parent="1" vertex="1">
          <mxGeometry x="750" y="14.262820512820497" width="70" height="24.1025641025641" as="geometry" />
        </mxCell>
        <mxCell id="ZOYTXHk_VnNkoqSfOSc5-4" value="数据目录" style="rounded=0;whiteSpace=wrap;html=1;fillColor=none;strokeColor=#ffffff;strokeWidth=2;" parent="1" vertex="1">
          <mxGeometry x="840" y="14.262820512820497" width="70" height="24.1025641025641" as="geometry" />
        </mxCell>
        <mxCell id="ZOYTXHk_VnNkoqSfOSc5-5" value="数据开放" style="rounded=0;whiteSpace=wrap;html=1;fillColor=none;strokeColor=#ffffff;strokeWidth=2;" parent="1" vertex="1">
          <mxGeometry x="930" y="14.262820512820497" width="70" height="24.1025641025641" as="geometry" />
        </mxCell>
        <mxCell id="ZOYTXHk_VnNkoqSfOSc5-6" value="供需对接" style="rounded=0;whiteSpace=wrap;html=1;fillColor=none;strokeColor=#ffffff;strokeWidth=2;" parent="1" vertex="1">
          <mxGeometry x="930" y="50.41666666666666" width="70" height="24.1025641025641" as="geometry" />
        </mxCell>
        <mxCell id="ZOYTXHk_VnNkoqSfOSc5-7" value="数据分析" style="rounded=0;whiteSpace=wrap;html=1;fillColor=none;strokeColor=#ffffff;strokeWidth=2;" parent="1" vertex="1">
          <mxGeometry x="750" y="50.41666666666666" width="70" height="24.1025641025641" as="geometry" />
        </mxCell>
        <mxCell id="ZOYTXHk_VnNkoqSfOSc5-8" value="能力中枢" style="rounded=0;whiteSpace=wrap;html=1;fillColor=none;strokeColor=#ffffff;strokeWidth=2;" parent="1" vertex="1">
          <mxGeometry x="840" y="50.41666666666666" width="70" height="24.1025641025641" as="geometry" />
        </mxCell>
        <mxCell id="ZOYTXHk_VnNkoqSfOSc5-9" value="数据资源开发利用平台" style="rounded=1;whiteSpace=wrap;html=1;arcSize=4;align=center;verticalAlign=top;fillColor=none;" parent="1" vertex="1">
          <mxGeometry x="740" y="-167.75" width="280" height="125.37" as="geometry" />
        </mxCell>
        <mxCell id="ZOYTXHk_VnNkoqSfOSc5-10" value="加工工具集" style="rounded=0;whiteSpace=wrap;html=1;fillColor=none;strokeColor=#ffffff;strokeWidth=2;" parent="1" vertex="1">
          <mxGeometry x="750" y="-78.53205128205128" width="70" height="24.1025641025641" as="geometry" />
        </mxCell>
        <mxCell id="ZOYTXHk_VnNkoqSfOSc5-11" value="运维管理" style="rounded=0;whiteSpace=wrap;html=1;fillColor=none;strokeColor=#ffffff;strokeWidth=2;" parent="1" vertex="1">
          <mxGeometry x="840" y="-78.53205128205128" width="70" height="24.1025641025641" as="geometry" />
        </mxCell>
        <mxCell id="ZOYTXHk_VnNkoqSfOSc5-12" value="个人工作台" style="rounded=0;whiteSpace=wrap;html=1;fillColor=none;strokeColor=#ffffff;strokeWidth=2;" parent="1" vertex="1">
          <mxGeometry x="930" y="-78.53205128205128" width="70" height="24.1025641025641" as="geometry" />
        </mxCell>
        <mxCell id="ZOYTXHk_VnNkoqSfOSc5-13" value="在线产品开发" style="rounded=0;whiteSpace=wrap;html=1;fillColor=none;strokeColor=#ffffff;strokeWidth=2;fontSize=11;" parent="1" vertex="1">
          <mxGeometry x="750" y="-117.69871794871796" width="70" height="24.1025641025641" as="geometry" />
        </mxCell>
        <mxCell id="ZOYTXHk_VnNkoqSfOSc5-14" value="开发利用咨询" style="rounded=0;whiteSpace=wrap;html=1;fillColor=none;strokeColor=#ffffff;strokeWidth=2;fontSize=11;" parent="1" vertex="1">
          <mxGeometry x="840" y="-117.69871794871796" width="70" height="24.1025641025641" as="geometry" />
        </mxCell>
        <mxCell id="ZOYTXHk_VnNkoqSfOSc5-15" value="开发利用门户" style="rounded=0;whiteSpace=wrap;html=1;fillColor=none;strokeColor=#ffffff;strokeWidth=2;fontSize=11;" parent="1" vertex="1">
          <mxGeometry x="930" y="-117.69871794871796" width="70" height="24.1025641025641" as="geometry" />
        </mxCell>
        <mxCell id="ZOYTXHk_VnNkoqSfOSc5-16" value="公共数据授权运营平台" style="rounded=1;whiteSpace=wrap;html=1;arcSize=4;align=center;verticalAlign=top;fillColor=none;" parent="1" vertex="1">
          <mxGeometry x="1040" y="-32.73717948717949" width="280" height="110.87179487179488" as="geometry" />
        </mxCell>
        <mxCell id="ZOYTXHk_VnNkoqSfOSc5-17" value="授权运营门户" style="rounded=0;whiteSpace=wrap;html=1;fillColor=none;strokeColor=#ffffff;strokeWidth=2;fontSize=11;" parent="1" vertex="1">
          <mxGeometry x="1056" y="11.852564102564088" width="70" height="24.1025641025641" as="geometry" />
        </mxCell>
        <mxCell id="ZOYTXHk_VnNkoqSfOSc5-18" value="资源备案" style="rounded=0;whiteSpace=wrap;html=1;fillColor=none;strokeColor=#ffffff;strokeWidth=2;" parent="1" vertex="1">
          <mxGeometry x="1146" y="11.852564102564088" width="70" height="24.1025641025641" as="geometry" />
        </mxCell>
        <mxCell id="ZOYTXHk_VnNkoqSfOSc5-19" value="授权管理" style="rounded=0;whiteSpace=wrap;html=1;fillColor=none;strokeColor=#ffffff;strokeWidth=2;" parent="1" vertex="1">
          <mxGeometry x="1236" y="11.852564102564088" width="70" height="24.1025641025641" as="geometry" />
        </mxCell>
        <mxCell id="ZOYTXHk_VnNkoqSfOSc5-20" value="监督管理" style="rounded=0;whiteSpace=wrap;html=1;fillColor=none;strokeColor=#ffffff;strokeWidth=2;" parent="1" vertex="1">
          <mxGeometry x="1236" y="48.00641025641025" width="70" height="24.1025641025641" as="geometry" />
        </mxCell>
        <mxCell id="ZOYTXHk_VnNkoqSfOSc5-21" value="供应管理" style="rounded=0;whiteSpace=wrap;html=1;fillColor=none;strokeColor=#ffffff;strokeWidth=2;" parent="1" vertex="1">
          <mxGeometry x="1056" y="48.00641025641025" width="70" height="24.1025641025641" as="geometry" />
        </mxCell>
        <mxCell id="ZOYTXHk_VnNkoqSfOSc5-22" value="绩效评估" style="rounded=0;whiteSpace=wrap;html=1;fillColor=none;strokeColor=#ffffff;strokeWidth=2;" parent="1" vertex="1">
          <mxGeometry x="1146" y="48.00641025641025" width="70" height="24.1025641025641" as="geometry" />
        </mxCell>
        <mxCell id="ZOYTXHk_VnNkoqSfOSc5-23" value="数据要素流通平台" style="rounded=1;whiteSpace=wrap;html=1;arcSize=4;align=center;verticalAlign=top;fillColor=none;" parent="1" vertex="1">
          <mxGeometry x="1040" y="-167.75" width="280" height="125.37" as="geometry" />
        </mxCell>
        <mxCell id="ZOYTXHk_VnNkoqSfOSc5-24" value="运营分析" style="rounded=0;whiteSpace=wrap;html=1;fillColor=none;strokeColor=#ffffff;strokeWidth=2;" parent="1" vertex="1">
          <mxGeometry x="1045" y="-70.32692307692308" width="61" height="24.1025641025641" as="geometry" />
        </mxCell>
        <mxCell id="ZOYTXHk_VnNkoqSfOSc5-25" value="数商生态" style="rounded=0;whiteSpace=wrap;html=1;fillColor=none;strokeColor=#ffffff;strokeWidth=2;" parent="1" vertex="1">
          <mxGeometry x="1116" y="-70.32692307692308" width="61" height="24.1025641025641" as="geometry" />
        </mxCell>
        <mxCell id="ZOYTXHk_VnNkoqSfOSc5-26" value="体验专区" style="rounded=0;whiteSpace=wrap;html=1;fillColor=none;strokeColor=#ffffff;strokeWidth=2;" parent="1" vertex="1">
          <mxGeometry x="1186" y="-70.32692307692308" width="61" height="24.1025641025641" as="geometry" />
        </mxCell>
        <mxCell id="ZOYTXHk_VnNkoqSfOSc5-27" value="场景专区" style="rounded=0;whiteSpace=wrap;html=1;fillColor=none;strokeColor=#ffffff;strokeWidth=2;" parent="1" vertex="1">
          <mxGeometry x="1255" y="-70.32692307692308" width="61" height="24.1025641025641" as="geometry" />
        </mxCell>
        <mxCell id="ZOYTXHk_VnNkoqSfOSc5-28" value="需求大厅" style="rounded=0;whiteSpace=wrap;html=1;fillColor=none;strokeColor=#ffffff;strokeWidth=2;" parent="1" vertex="1">
          <mxGeometry x="1045.5" y="-103.46794871794872" width="61" height="24.1025641025641" as="geometry" />
        </mxCell>
        <mxCell id="ZOYTXHk_VnNkoqSfOSc5-29" value="订单管理" style="rounded=0;whiteSpace=wrap;html=1;fillColor=none;strokeColor=#ffffff;strokeWidth=2;" parent="1" vertex="1">
          <mxGeometry x="1116.5" y="-103.46794871794872" width="61" height="24.1025641025641" as="geometry" />
        </mxCell>
        <mxCell id="ZOYTXHk_VnNkoqSfOSc5-30" value="数据资源" style="rounded=0;whiteSpace=wrap;html=1;fillColor=none;strokeColor=#ffffff;strokeWidth=2;" parent="1" vertex="1">
          <mxGeometry x="1186.5" y="-103.46794871794872" width="61" height="24.1025641025641" as="geometry" />
        </mxCell>
        <mxCell id="ZOYTXHk_VnNkoqSfOSc5-31" value="交易大厅" style="rounded=0;whiteSpace=wrap;html=1;fillColor=none;strokeColor=#ffffff;strokeWidth=2;" parent="1" vertex="1">
          <mxGeometry x="1255.5" y="-103.46794871794872" width="61" height="24.1025641025641" as="geometry" />
        </mxCell>
        <mxCell id="ZOYTXHk_VnNkoqSfOSc5-32" value="平台门户" style="rounded=0;whiteSpace=wrap;html=1;fillColor=none;strokeColor=#FFFFFF;strokeWidth=2;" parent="1" vertex="1">
          <mxGeometry x="1045.5" y="-134.57" width="264.5" height="24.1" as="geometry" />
        </mxCell>
        <mxCell id="ZOYTXHk_VnNkoqSfOSc5-35" value="" style="rounded=0;whiteSpace=wrap;html=1;fillColor=#dae8fc;strokeColor=none;" parent="1" vertex="1">
          <mxGeometry x="897" y="120" width="453" height="110" as="geometry" />
        </mxCell>
        <mxCell id="ZOYTXHk_VnNkoqSfOSc5-38" value="视觉深度学习模型与样本管理" style="rounded=0;whiteSpace=wrap;html=1;fillColor=none;strokeColor=#FFFFFF;strokeWidth=2;fontSize=11;" parent="1" vertex="1">
          <mxGeometry x="908" y="201" width="213" height="24" as="geometry" />
        </mxCell>
        <mxCell id="ZOYTXHk_VnNkoqSfOSc5-39" value="智能在线服务" style="rounded=0;whiteSpace=wrap;html=1;fillColor=none;strokeColor=#FFFFFF;strokeWidth=2;fontSize=11;" parent="1" vertex="1">
          <mxGeometry x="1125" y="201" width="213" height="24" as="geometry" />
        </mxCell>
        <mxCell id="ZOYTXHk_VnNkoqSfOSc5-40" value="智能监测任务" style="rounded=0;whiteSpace=wrap;html=1;fillColor=none;strokeColor=#FFFFFF;strokeWidth=2;fontSize=11;" parent="1" vertex="1">
          <mxGeometry x="1238" y="170.99" width="100" height="24" as="geometry" />
        </mxCell>
        <mxCell id="ZOYTXHk_VnNkoqSfOSc5-42" value="自然资源场景" style="rounded=0;whiteSpace=wrap;html=1;fillColor=none;strokeColor=#FFFFFF;strokeWidth=2;fontSize=11;" parent="1" vertex="1">
          <mxGeometry x="908" y="140.79" width="100" height="24" as="geometry" />
        </mxCell>
        <mxCell id="ZOYTXHk_VnNkoqSfOSc5-43" value="水利海事场景" style="rounded=0;whiteSpace=wrap;html=1;fillColor=none;strokeColor=#FFFFFF;strokeWidth=2;fontSize=11;" parent="1" vertex="1">
          <mxGeometry x="1018" y="140.79" width="100" height="24" as="geometry" />
        </mxCell>
        <mxCell id="ZOYTXHk_VnNkoqSfOSc5-44" value="其他政务场景" style="rounded=0;whiteSpace=wrap;html=1;fillColor=none;strokeColor=#FFFFFF;strokeWidth=2;fontSize=11;" parent="1" vertex="1">
          <mxGeometry x="1128" y="140.79" width="100" height="24" as="geometry" />
        </mxCell>
        <mxCell id="ZOYTXHk_VnNkoqSfOSc5-45" value="智能服务应用" style="rounded=0;whiteSpace=wrap;html=1;fillColor=none;strokeColor=#FFFFFF;strokeWidth=2;fontSize=11;" parent="1" vertex="1">
          <mxGeometry x="1238" y="140.79" width="100" height="24" as="geometry" />
        </mxCell>
        <mxCell id="ZOYTXHk_VnNkoqSfOSc5-47" value="低空空域管理" style="rounded=0;whiteSpace=wrap;html=1;fillColor=none;strokeColor=#FFFFFF;strokeWidth=2;fontSize=11;" parent="1" vertex="1">
          <mxGeometry x="908" y="171" width="100" height="23.99" as="geometry" />
        </mxCell>
        <mxCell id="ZOYTXHk_VnNkoqSfOSc5-48" value="低空飞行控制" style="rounded=0;whiteSpace=wrap;html=1;fillColor=none;strokeColor=#FFFFFF;strokeWidth=2;fontSize=11;" parent="1" vertex="1">
          <mxGeometry x="1018.0042105263158" y="171" width="100" height="24" as="geometry" />
        </mxCell>
        <mxCell id="ZOYTXHk_VnNkoqSfOSc5-49" value="低空航线规划" style="rounded=0;whiteSpace=wrap;html=1;fillColor=none;strokeColor=#FFFFFF;strokeWidth=2;fontSize=11;" parent="1" vertex="1">
          <mxGeometry x="1126.9984210526318" y="171" width="100" height="24" as="geometry" />
        </mxCell>
        <mxCell id="ZOYTXHk_VnNkoqSfOSc5-51" value="数字低空飞行综合管理平台" style="text;html=1;align=center;verticalAlign=middle;whiteSpace=wrap;rounded=0;fontStyle=1;fontSize=14;" parent="1" vertex="1">
          <mxGeometry x="1050.75" y="115" width="184" height="30" as="geometry" />
        </mxCell>
        <mxCell id="ZOYTXHk_VnNkoqSfOSc5-52" value="" style="rounded=0;whiteSpace=wrap;html=1;fillColor=#dae8fc;strokeColor=none;" parent="1" vertex="1">
          <mxGeometry x="897" y="240" width="453" height="130" as="geometry" />
        </mxCell>
        <mxCell id="ZOYTXHk_VnNkoqSfOSc5-53" value="行业大模型运管平台" style="text;html=1;align=center;verticalAlign=middle;whiteSpace=wrap;rounded=0;fontStyle=1;fontSize=14;" parent="1" vertex="1">
          <mxGeometry x="1032" y="240" width="184" height="30" as="geometry" />
        </mxCell>
      </root>
    </mxGraphModel>
  </diagram>
</mxfile>
